<mxfile host="app.diagrams.net" modified="2024-05-24T17:06:34.742Z" agent="Mozilla/5.0 (Windows NT 10.0; Win64; x64) AppleWebKit/537.36 (KHTML, like Gecko) Chrome/125.0.0.0 Safari/537.36" etag="2dVVUhExMAavcipMBicS" version="24.4.8" type="device">
  <diagram name="Pagina-1" id="fkAwXlmfzPaWWQe8Jp1b">
    <mxGraphModel dx="1434" dy="772" grid="1" gridSize="10" guides="1" tooltips="1" connect="1" arrows="1" fold="1" page="1" pageScale="1" pageWidth="827" pageHeight="1169" math="0" shadow="0">
      <root>
        <mxCell id="0" />
        <mxCell id="1" parent="0" />
        <mxCell id="FnD51-tb8JoLtEbYkaXV-12" style="edgeStyle=orthogonalEdgeStyle;rounded=0;orthogonalLoop=1;jettySize=auto;html=1;exitX=0.5;exitY=1;exitDx=0;exitDy=0;entryX=0.5;entryY=0;entryDx=0;entryDy=0;" parent="1" source="FnD51-tb8JoLtEbYkaXV-1" target="FnD51-tb8JoLtEbYkaXV-11" edge="1">
          <mxGeometry relative="1" as="geometry" />
        </mxCell>
        <mxCell id="FnD51-tb8JoLtEbYkaXV-1" value="limitazioni e minacce" style="rounded=0;whiteSpace=wrap;html=1;fillColor=#f8cecc;strokeColor=#b85450;" parent="1" vertex="1">
          <mxGeometry x="314.63" y="160" width="150" height="70" as="geometry" />
        </mxCell>
        <mxCell id="FnD51-tb8JoLtEbYkaXV-2" value="" style="shape=crossbar;whiteSpace=wrap;html=1;rounded=1;direction=south;rotation=90;" parent="1" vertex="1">
          <mxGeometry x="379.63" y="10.63" width="20" height="538.75" as="geometry" />
        </mxCell>
        <mxCell id="_lTY9vggsVqoPX2LZWq6-12" style="edgeStyle=orthogonalEdgeStyle;rounded=0;orthogonalLoop=1;jettySize=auto;html=1;exitX=0.5;exitY=1;exitDx=0;exitDy=0;entryX=0.5;entryY=0;entryDx=0;entryDy=0;" edge="1" parent="1" source="FnD51-tb8JoLtEbYkaXV-3" target="_lTY9vggsVqoPX2LZWq6-10">
          <mxGeometry relative="1" as="geometry" />
        </mxCell>
        <mxCell id="FnD51-tb8JoLtEbYkaXV-3" value="Validità interna" style="rounded=0;whiteSpace=wrap;html=1;fillColor=#dae8fc;strokeColor=#6c8ebf;" parent="1" vertex="1">
          <mxGeometry x="120" y="360" width="120" height="60" as="geometry" />
        </mxCell>
        <mxCell id="_lTY9vggsVqoPX2LZWq6-3" style="edgeStyle=orthogonalEdgeStyle;rounded=0;orthogonalLoop=1;jettySize=auto;html=1;exitX=0.5;exitY=1;exitDx=0;exitDy=0;entryX=0.5;entryY=0;entryDx=0;entryDy=0;" edge="1" parent="1" source="FnD51-tb8JoLtEbYkaXV-4" target="_lTY9vggsVqoPX2LZWq6-1">
          <mxGeometry relative="1" as="geometry" />
        </mxCell>
        <mxCell id="FnD51-tb8JoLtEbYkaXV-4" value="validità esterna" style="rounded=0;whiteSpace=wrap;html=1;fillColor=#dae8fc;strokeColor=#6c8ebf;" parent="1" vertex="1">
          <mxGeometry x="260" y="360" width="120" height="60" as="geometry" />
        </mxCell>
        <mxCell id="_lTY9vggsVqoPX2LZWq6-14" style="edgeStyle=orthogonalEdgeStyle;rounded=0;orthogonalLoop=1;jettySize=auto;html=1;exitX=0.5;exitY=1;exitDx=0;exitDy=0;" edge="1" parent="1" source="FnD51-tb8JoLtEbYkaXV-5" target="_lTY9vggsVqoPX2LZWq6-9">
          <mxGeometry relative="1" as="geometry" />
        </mxCell>
        <mxCell id="FnD51-tb8JoLtEbYkaXV-5" value="validità del costrutto" style="rounded=0;whiteSpace=wrap;html=1;fillColor=#dae8fc;strokeColor=#6c8ebf;" parent="1" vertex="1">
          <mxGeometry x="400" y="360" width="120" height="60" as="geometry" />
        </mxCell>
        <mxCell id="_lTY9vggsVqoPX2LZWq6-7" style="edgeStyle=orthogonalEdgeStyle;rounded=0;orthogonalLoop=1;jettySize=auto;html=1;exitX=0.5;exitY=1;exitDx=0;exitDy=0;entryX=0.5;entryY=0;entryDx=0;entryDy=0;" edge="1" parent="1" source="FnD51-tb8JoLtEbYkaXV-6" target="_lTY9vggsVqoPX2LZWq6-5">
          <mxGeometry relative="1" as="geometry" />
        </mxCell>
        <mxCell id="FnD51-tb8JoLtEbYkaXV-6" value="validità delle conclusioni" style="rounded=0;whiteSpace=wrap;html=1;fillColor=#dae8fc;strokeColor=#6c8ebf;" parent="1" vertex="1">
          <mxGeometry x="540" y="360" width="120" height="60" as="geometry" />
        </mxCell>
        <mxCell id="FnD51-tb8JoLtEbYkaXV-11" value="analisi" style="rounded=0;whiteSpace=wrap;html=1;" parent="1" vertex="1">
          <mxGeometry x="329.63" y="280" width="120" height="20" as="geometry" />
        </mxCell>
        <mxCell id="FnD51-tb8JoLtEbYkaXV-13" value="" style="endArrow=classic;html=1;rounded=0;exitX=0.891;exitY=0.359;exitDx=0;exitDy=0;exitPerimeter=0;entryX=0.5;entryY=0;entryDx=0;entryDy=0;" parent="1" source="FnD51-tb8JoLtEbYkaXV-2" target="FnD51-tb8JoLtEbYkaXV-3" edge="1">
          <mxGeometry width="50" height="50" relative="1" as="geometry">
            <mxPoint x="370" y="340" as="sourcePoint" />
            <mxPoint x="420" y="290" as="targetPoint" />
          </mxGeometry>
        </mxCell>
        <mxCell id="FnD51-tb8JoLtEbYkaXV-14" value="" style="endArrow=classic;html=1;rounded=0;exitX=0.891;exitY=0.359;exitDx=0;exitDy=0;exitPerimeter=0;entryX=0.5;entryY=0;entryDx=0;entryDy=0;" parent="1" edge="1">
          <mxGeometry width="50" height="50" relative="1" as="geometry">
            <mxPoint x="314.63" y="283" as="sourcePoint" />
            <mxPoint x="315.63" y="360" as="targetPoint" />
          </mxGeometry>
        </mxCell>
        <mxCell id="FnD51-tb8JoLtEbYkaXV-15" value="" style="endArrow=classic;html=1;rounded=0;exitX=0.891;exitY=0.359;exitDx=0;exitDy=0;exitPerimeter=0;entryX=0.5;entryY=0;entryDx=0;entryDy=0;" parent="1" edge="1">
          <mxGeometry width="50" height="50" relative="1" as="geometry">
            <mxPoint x="459.5" y="283" as="sourcePoint" />
            <mxPoint x="460.5" y="360" as="targetPoint" />
          </mxGeometry>
        </mxCell>
        <mxCell id="FnD51-tb8JoLtEbYkaXV-16" value="" style="endArrow=classic;html=1;rounded=0;exitX=0.891;exitY=0.359;exitDx=0;exitDy=0;exitPerimeter=0;entryX=0.5;entryY=0;entryDx=0;entryDy=0;" parent="1" edge="1">
          <mxGeometry width="50" height="50" relative="1" as="geometry">
            <mxPoint x="599.5" y="280" as="sourcePoint" />
            <mxPoint x="600.5" y="357" as="targetPoint" />
          </mxGeometry>
        </mxCell>
        <mxCell id="_lTY9vggsVqoPX2LZWq6-4" style="edgeStyle=orthogonalEdgeStyle;rounded=0;orthogonalLoop=1;jettySize=auto;html=1;exitX=0.5;exitY=1;exitDx=0;exitDy=0;entryX=0.5;entryY=0;entryDx=0;entryDy=0;" edge="1" parent="1" source="_lTY9vggsVqoPX2LZWq6-1" target="_lTY9vggsVqoPX2LZWq6-2">
          <mxGeometry relative="1" as="geometry" />
        </mxCell>
        <mxCell id="_lTY9vggsVqoPX2LZWq6-1" value="utilizzo database noti" style="rounded=0;whiteSpace=wrap;html=1;" vertex="1" parent="1">
          <mxGeometry x="260" y="450" width="120" height="60" as="geometry" />
        </mxCell>
        <mxCell id="_lTY9vggsVqoPX2LZWq6-2" value="utilizzo unica lingua" style="rounded=0;whiteSpace=wrap;html=1;" vertex="1" parent="1">
          <mxGeometry x="260" y="540" width="120" height="60" as="geometry" />
        </mxCell>
        <mxCell id="_lTY9vggsVqoPX2LZWq6-8" style="edgeStyle=orthogonalEdgeStyle;rounded=0;orthogonalLoop=1;jettySize=auto;html=1;exitX=0.5;exitY=1;exitDx=0;exitDy=0;entryX=0.5;entryY=0;entryDx=0;entryDy=0;" edge="1" parent="1" source="_lTY9vggsVqoPX2LZWq6-5" target="_lTY9vggsVqoPX2LZWq6-6">
          <mxGeometry relative="1" as="geometry" />
        </mxCell>
        <mxCell id="_lTY9vggsVqoPX2LZWq6-5" value="scelta dei migliori motori di ricerca" style="rounded=0;whiteSpace=wrap;html=1;" vertex="1" parent="1">
          <mxGeometry x="540" y="450" width="120" height="60" as="geometry" />
        </mxCell>
        <mxCell id="_lTY9vggsVqoPX2LZWq6-6" value="revisione da parte dell&#39;autore dei processi" style="rounded=0;whiteSpace=wrap;html=1;" vertex="1" parent="1">
          <mxGeometry x="540" y="540" width="120" height="60" as="geometry" />
        </mxCell>
        <mxCell id="_lTY9vggsVqoPX2LZWq6-9" value="Revisione delle misurazioni" style="rounded=0;whiteSpace=wrap;html=1;" vertex="1" parent="1">
          <mxGeometry x="400" y="450" width="120" height="60" as="geometry" />
        </mxCell>
        <mxCell id="_lTY9vggsVqoPX2LZWq6-13" style="edgeStyle=orthogonalEdgeStyle;rounded=0;orthogonalLoop=1;jettySize=auto;html=1;exitX=0.5;exitY=1;exitDx=0;exitDy=0;entryX=0.5;entryY=0;entryDx=0;entryDy=0;" edge="1" parent="1" source="_lTY9vggsVqoPX2LZWq6-10" target="_lTY9vggsVqoPX2LZWq6-11">
          <mxGeometry relative="1" as="geometry" />
        </mxCell>
        <mxCell id="_lTY9vggsVqoPX2LZWq6-10" value="revisione delle fonti" style="rounded=0;whiteSpace=wrap;html=1;" vertex="1" parent="1">
          <mxGeometry x="120" y="450" width="120" height="60" as="geometry" />
        </mxCell>
        <mxCell id="_lTY9vggsVqoPX2LZWq6-11" value="garanzia della replicabilità" style="rounded=0;whiteSpace=wrap;html=1;" vertex="1" parent="1">
          <mxGeometry x="120" y="540" width="120" height="60" as="geometry" />
        </mxCell>
      </root>
    </mxGraphModel>
  </diagram>
</mxfile>
